# xmcd
#
# Track frame offsets:
#	150
#	24299
#	43085
#	57184
#	72108
#	121570
#	146469
#	166757
#	198181
#	218731
#
# Disc length: 3214 seconds
#
# Revision: 2
# Processed by: cddbd v1.5.1PL0 Copyright (c) Steve Scherf et al.
# Submitted via: dBpowerAMP V4.0
#
DISCID=7c0c8c0a
DTITLE=Toivo Kurmet - The Dimensions of Compassion
DYEAR=2004
DGENRE=harmony
TTITLE0=Angelique
TTITLE1=Merlin's Day
TTITLE2=The Lost World
TTITLE3=Eternity
TTITLE4=Labelore
TTITLE5=Ocean Of Forgetfulness
TTITLE6=Flying Away
TTITLE7=Dreamscape
TTITLE8=Aphrodite Plays
TTITLE9=Requiem
EXTD=
EXTT0=
EXTT1=
EXTT2=
EXTT3=
EXTT4=
EXTT5=
EXTT6=
EXTT7=
EXTT8=
EXTT9=
PLAYORDER=
